<?xml version="1.0" standalone="no"?>
<!DOCTYPE svg PUBLIC "-//W3C//DTD SVG 20010904//EN"
 "http://www.w3.org/TR/2001/REC-SVG-20010904/DTD/svg10.dtd">
<svg version="1.0" xmlns="http://www.w3.org/2000/svg"
 width="989.000000pt" height="989.000000pt" viewBox="0 0 989.000000 989.000000"
 preserveAspectRatio="xMidYMid meet">

<g transform="translate(0.000000,989.000000) scale(0.100000,-0.100000)"
fill="#000000" stroke="none">
<path d="M4765 9394 c-348 -56 -763 -221 -1102 -438 -185 -118 -264 -187 -396
-344 -231 -277 -381 -508 -553 -852 -136 -274 -208 -456 -298 -753 -148 -489
-219 -875 -232 -1262 l-6 -170 72 -125 c153 -263 291 -466 592 -871 92 -125
168 -231 168 -236 0 -5 -24 -15 -52 -22 -131 -33 -310 -148 -410 -262 -172
-199 -232 -343 -349 -844 -17 -77 -37 -152 -43 -166 -13 -32 -249 -378 -257
-379 -4 0 -12 20 -19 45 -12 42 -11 47 26 127 22 46 60 121 86 167 25 46 53
111 62 145 9 33 36 144 60 246 81 333 130 455 257 646 86 128 241 268 377 339
28 15 52 29 52 32 0 2 -53 75 -118 161 -237 315 -468 673 -578 895 l-56 112 6
135 c16 380 100 811 253 1310 72 234 128 371 258 631 97 195 305 543 388 652
16 21 27 40 25 42 -8 8 -252 -163 -390 -273 -175 -140 -515 -480 -651 -652
-514 -650 -808 -1303 -941 -2095 -58 -342 -60 -853 -5 -1235 78 -543 268
-1095 537 -1565 74 -128 228 -361 311 -469 42 -54 85 -110 95 -125 98 -131
304 -350 461 -491 389 -347 745 -556 1255 -736 569 -201 1217 -267 1795 -183
853 124 1560 475 2155 1069 244 244 419 460 601 745 390 608 602 1230 680
1995 17 159 17 597 1 750 -41 392 -156 852 -299 1199 -264 642 -690 1238
-1198 1679 -60 53 -141 119 -180 147 -81 60 -341 235 -348 235 -3 0 35 -64 84
-142 198 -314 367 -613 427 -752 80 -190 168 -457 246 -751 61 -233 71 -278
105 -482 35 -212 48 -323 57 -499 l6 -131 -78 -144 c-176 -324 -428 -721 -596
-937 -37 -48 -68 -90 -68 -94 0 -3 26 -21 58 -38 255 -144 421 -339 533 -628
37 -98 100 -318 139 -492 24 -107 43 -163 94 -270 69 -146 102 -233 110 -296
3 -21 8 -50 12 -64 3 -14 -23 18 -59 70 -37 52 -88 124 -114 160 -91 124 -119
185 -157 340 -58 238 -121 449 -164 548 -108 251 -247 406 -462 516 -47 24
-107 49 -135 56 -27 7 -54 16 -59 21 -4 4 25 51 66 106 246 325 444 621 610
912 33 58 78 137 100 174 l41 68 -7 117 c-38 653 -235 1409 -520 1997 -187
385 -393 701 -634 974 -198 222 -643 480 -1062 615 -279 90 -491 119 -665 90z
m380 -159 c387 -87 882 -325 1153 -553 149 -127 404 -468 576 -775 77 -136
197 -381 236 -482 218 -557 332 -1033 394 -1647 l6 -58 -37 -15 c-26 -11 -39
-12 -43 -4 -4 6 -12 56 -19 112 -12 102 -69 448 -117 712 -40 217 -109 522
-138 609 -92 273 -257 581 -491 917 -21 30 -59 83 -83 119 -59 84 -212 263
-310 363 -199 203 -652 424 -1125 549 -223 59 -363 44 -727 -81 -312 -106
-649 -280 -804 -414 -125 -109 -427 -453 -537 -613 -62 -91 -161 -270 -253
-459 -157 -322 -210 -478 -271 -800 -75 -395 -115 -657 -132 -863 -20 -246
-30 -205 93 -384 49 -73 77 -125 92 -176 12 -39 32 -104 43 -142 12 -39 31
-82 42 -96 10 -14 18 -27 15 -29 -8 -9 -102 120 -226 310 -192 296 -178 255
-164 459 35 513 190 1172 383 1628 216 512 592 1075 860 1289 233 186 603 374
934 474 299 90 428 100 650 50z m-331 -1681 c25 -42 46 -78 46 -81 0 -2 23
-38 50 -79 28 -41 48 -79 45 -84 -14 -22 -164 133 -220 227 l-25 41 21 26 c11
14 24 26 29 26 5 0 29 -34 54 -76z m532 -80 c18 -9 49 -34 69 -55 30 -33 34
-45 30 -72 -4 -17 -11 -36 -16 -42 -20 -20 -95 -9 -145 20 -64 38 -83 62 -84
107 0 64 61 82 146 42z m-1078 -330 c128 -339 383 -680 667 -894 72 -54 145
-96 145 -83 0 3 -42 86 -93 182 -52 97 -100 192 -107 211 -7 19 -17 39 -22 45
-4 5 -8 13 -8 17 0 5 42 -28 93 -72 108 -95 212 -166 319 -218 42 -20 75 -41
73 -47 -2 -5 -16 -38 -30 -73 -16 -39 -25 -77 -23 -99 l3 -36 60 77 60 77 6
-63 c8 -96 36 -165 84 -213 73 -73 168 -81 270 -21 88 52 131 162 128 324 l-2
92 28 -15 c137 -70 160 -185 64 -312 -13 -18 -21 -33 -18 -33 22 0 136 70 178
108 28 26 48 40 45 32 -3 -9 -16 -52 -28 -95 -59 -211 -180 -395 -334 -505
-42 -30 -76 -57 -76 -61 0 -17 196 11 258 37 17 7 32 11 32 8 0 -14 -54 -107
-93 -161 -151 -204 -419 -393 -737 -518 -269 -105 -379 -99 -705 40 -152 65
-195 88 -309 163 -168 110 -302 253 -391 414 l-36 67 57 -20 c66 -23 166 -37
209 -29 l30 6 -45 29 c-116 76 -182 148 -253 275 -38 70 -91 217 -102 289 l-7
44 49 -41 c27 -23 52 -42 56 -42 4 0 25 -11 47 -25 51 -32 56 -31 31 4 -63 88
-78 183 -38 242 22 33 100 99 118 99 5 0 9 -49 9 -108 0 -123 15 -185 59 -253
42 -63 100 -94 176 -93 136 0 219 91 240 262 l7 54 29 -28 c16 -15 41 -45 55
-66 34 -48 45 -38 33 27 -31 166 -180 317 -374 378 -55 17 -94 22 -183 21
l-113 0 7 44 c4 24 12 67 18 95 l12 52 49 -3 c28 -1 110 -16 182 -34 73 -17
136 -28 140 -24 5 4 -17 31 -48 60 -42 39 -72 58 -123 74 -36 12 -79 22 -94
22 -45 0 -72 11 -72 30 0 32 82 273 121 357 21 46 57 115 80 155 l42 72 32
-110 c18 -60 46 -146 63 -190z m145 272 c22 -23 71 -145 63 -153 -3 -3 -14 13
-26 36 -37 74 -37 45 2 -79 17 -54 113 -292 148 -365 5 -11 14 -33 20 -50 l10
-30 -25 30 c-34 40 -156 290 -189 386 -29 87 -56 194 -56 227 0 29 25 29 53
-2z m841 -404 c55 -44 139 -105 186 -137 47 -32 96 -67 110 -78 l25 -19 -25 7
c-144 41 -473 299 -544 426 -16 28 -4 20 63 -43 46 -43 129 -113 185 -156z
m-1503 -59 c-26 -149 -34 -173 -52 -173 -14 0 -5 58 27 178 26 97 41 142 47
142 2 0 -8 -66 -22 -147z m19 -315 c0 -51 -3 -103 -6 -115 -6 -20 -91 -79
-101 -69 -2 2 1 52 7 112 5 60 10 114 10 120 0 10 61 42 83 43 4 1 7 -41 7
-91z m1542 -15 c40 -25 108 -63 151 -84 43 -21 76 -41 75 -46 -2 -4 -24 -23
-50 -40 l-47 -33 -75 83 c-73 79 -141 167 -131 167 3 0 37 -21 77 -47z m-2132
-278 c12 -95 58 -283 116 -469 19 -61 37 -120 40 -131 l6 -20 -15 20 c-22 31
-82 198 -116 325 -41 154 -61 294 -60 415 l2 100 8 -75 c5 -41 13 -115 19
-165z m-233 -1387 c16 -24 33 -47 39 -53 6 -5 41 -53 78 -105 36 -52 73 -102
81 -111 8 -9 15 -22 15 -30 0 -15 39 -70 40 -55 0 5 -8 19 -17 30 -17 20 -17
20 0 7 21 -17 46 -58 28 -47 -22 14 -10 -8 41 -73 95 -121 150 -181 161 -174
6 3 7 1 3 -5 -3 -6 0 -14 8 -19 8 -4 31 -29 53 -55 21 -26 76 -88 123 -139 80
-87 82 -91 40 -64 -192 120 -364 256 -462 367 -36 40 -123 149 -193 242 -112
150 -126 173 -121 199 3 16 6 36 6 44 0 8 5 11 10 8 6 -4 10 7 10 24 0 31 15
42 23 19 2 -7 2 -3 0 10 -5 32 3 27 34 -20z m3877 -95 c-10 -42 -59 -147 -114
-243 -71 -124 -216 -283 -365 -399 l-20 -16 20 25 c11 14 22 27 25 30 51 50
262 335 374 508 26 39 51 72 56 72 4 0 11 11 14 25 4 14 9 25 11 25 3 0 2 -12
-1 -27z m-2878 -119 c-3 -8 -1 -14 5 -14 5 0 14 -10 20 -23 8 -19 4 -32 -25
-81 -34 -57 -57 -121 -71 -199 -8 -43 -27 -62 -20 -20 2 15 7 59 10 96 3 38
12 87 19 110 7 23 21 68 30 100 10 33 21 55 27 51 6 -3 8 -12 5 -20z m1963
-44 c26 -66 51 -206 50 -275 l-1 -50 -10 35 c-30 111 -42 147 -64 187 -13 25
-21 50 -17 56 3 5 2 7 -3 4 -6 -3 -15 2 -21 12 -9 15 -7 27 9 60 11 23 24 39
28 34 4 -4 17 -33 29 -63z m-1343 -85 c93 -55 195 -99 277 -119 62 -16 72 -16
129 -1 121 31 272 106 382 190 l36 27 0 -40 c0 -38 -3 -43 -64 -86 -142 -101
-261 -304 -289 -496 -4 -27 -65 -75 -107 -84 -31 -6 -125 35 -138 61 -5 10
-17 47 -26 83 -20 81 -103 252 -154 317 -22 27 -71 73 -111 103 -62 48 -71 59
-71 87 0 17 -3 40 -7 50 -5 12 7 6 34 -17 23 -19 72 -53 109 -75z m-228 -75
c116 -78 206 -200 257 -349 35 -104 59 -270 52 -367 -8 -112 -54 -224 -91
-224 -6 0 -4 5 4 10 8 5 11 10 5 10 -5 0 -4 4 3 9 13 8 38 158 29 168 -3 2
-26 -5 -53 -15 -27 -11 -61 -22 -76 -26 -27 -6 -28 -5 -28 33 0 60 -38 243
-67 324 -14 40 -39 99 -57 132 -36 70 -133 177 -175 195 -43 17 -29 44 51 104
26 20 44 26 60 21 18 -5 20 -4 8 4 -13 9 -13 11 1 11 9 0 44 -18 77 -40z
m1228 20 c24 0 86 -36 124 -71 l35 -32 -32 -11 c-47 -16 -115 -77 -158 -141
-73 -111 -117 -253 -152 -495 -8 -54 -9 -55 -38 -51 -16 1 -51 14 -77 27 -43
22 -48 23 -47 7 1 -40 26 -160 39 -183 l13 -25 -27 24 c-41 39 -67 122 -73
238 -12 222 66 465 193 603 53 57 176 138 182 120 2 -5 10 -10 18 -10z m215
-67 c13 -16 12 -17 -3 -4 -10 7 -18 15 -18 17 0 8 8 3 21 -13z m-1664 -155
c134 -81 258 -472 216 -679 -6 -29 -8 -22 -19 51 -17 114 -44 192 -70 205 -38
19 -55 38 -114 125 -83 123 -170 244 -182 251 -18 11 15 48 57 63 44 16 65 13
112 -16z m1706 16 c59 -31 58 -37 -37 -155 -34 -41 -70 -87 -81 -102 -18 -25
-44 -39 -30 -17 3 5 0 7 -9 4 -8 -3 -17 -12 -20 -20 -3 -8 -10 -14 -16 -14 -6
0 -8 5 -5 10 3 6 1 10 -5 10 -5 0 -18 -17 -26 -37 -9 -21 -21 -47 -27 -58 -23
-44 -48 -165 -54 -258 -4 -71 -9 -95 -17 -87 -7 7 -11 60 -11 143 1 161 25
268 91 403 47 97 97 158 148 180 41 18 61 17 99 -2z m-2725 -200 c32 -9 28
-17 -20 -44 -206 -112 -387 -324 -467 -545 -16 -46 -48 -152 -71 -237 -23 -84
-59 -216 -80 -293 -22 -77 -47 -189 -55 -250 -9 -60 -18 -112 -21 -115 -3 -2
-31 -14 -62 -25 l-57 -20 -3 -77 -3 -77 -29 17 c-16 9 -32 14 -35 10 -3 -3 8
-41 24 -84 17 -44 31 -82 31 -86 0 -4 -21 -19 -47 -32 -27 -13 -88 -54 -137
-90 -49 -37 -89 -65 -90 -64 -1 2 -20 28 -41 58 -21 30 -38 59 -38 65 0 6 39
71 88 145 49 74 100 164 113 200 37 96 70 141 126 170 l49 25 28 105 c16 58
49 186 74 285 131 516 184 644 326 784 128 126 298 201 397 175z m3827 -25
c180 -66 340 -251 423 -484 50 -141 222 -782 222 -826 0 -14 13 -25 45 -39 48
-21 93 -74 127 -150 46 -103 74 -156 136 -253 35 -55 66 -107 69 -113 5 -14
-74 -124 -89 -124 -6 0 -47 29 -93 64 -105 82 -109 83 -183 92 -34 3 -62 9
-62 11 0 2 19 36 41 74 38 63 41 72 29 94 -8 16 -10 41 -6 79 9 66 -8 89 -71
99 l-40 7 -6 88 c-6 86 -16 125 -110 437 -20 66 -52 178 -72 249 -77 279 -216
487 -415 620 -36 24 -84 50 -108 58 -33 11 -40 17 -30 25 32 26 109 23 193 -8z
m-72 -726 c-7 -2 -21 -2 -30 0 -10 3 -4 5 12 5 17 0 24 -2 18 -5z m-2140 -10
c-315 -2 -831 -2 -1145 0 -315 1 -58 2 572 2 630 0 887 -1 573 -2z m2137 -16
c0 -2 -10 -12 -22 -23 l-23 -19 19 23 c18 21 26 27 26 19z m-293 -83 c-3 -3
-12 -4 -19 -1 -8 3 -5 6 6 6 11 1 17 -2 13 -5z m-274 -11 c-7 -2 -21 -2 -30 0
-10 3 -4 5 12 5 17 0 24 -2 18 -5z m-440 -10 c-23 -2 -64 -2 -90 0 -26 2 -7 3
42 3 50 0 71 -1 48 -3z m-858 -693 c0 -34 -3 -36 -90 -82 -95 -50 -143 -58
-170 -32 -22 23 -13 30 115 98 122 65 145 67 145 16z m151 -72 c46 -28 84 -56
84 -62 0 -6 2 -53 3 -103 2 -51 1 -93 -2 -93 -4 0 -23 11 -44 25 -35 24 -37
29 -37 80 0 50 -2 55 -37 83 -21 16 -48 34 -60 41 -13 6 -23 19 -23 27 0 17
18 54 26 54 3 0 43 -23 90 -52z m-119 -84 c48 -29 63 -55 63 -109 0 -51 -8
-62 -58 -86 -26 -11 -61 -28 -78 -36 -41 -21 -73 -12 -118 34 -32 33 -36 43
-36 90 0 57 3 61 95 109 54 29 78 29 132 -2z m-287 -119 l0 -74 55 -47 c52
-45 54 -49 38 -66 -9 -10 -21 -18 -26 -18 -20 0 -135 81 -139 98 -10 38 -9
182 2 202 l11 21 30 -21 c28 -20 29 -25 29 -95z m428 -111 c12 -8 22 -21 22
-28 0 -11 -115 -81 -210 -127 l-40 -20 -30 23 c-17 12 -29 26 -27 32 3 10 234
134 252 135 6 1 21 -6 33 -15z m-1941 -436 c-3 -8 -6 -5 -6 6 -1 11 2 17 5 13
3 -3 4 -12 1 -19z m20 -220 c-2 -13 -4 -5 -4 17 -1 22 1 32 4 23 2 -10 2 -28
0 -40z m-60 -200 c-3 -8 -6 -5 -6 6 -1 11 2 17 5 13 3 -3 4 -12 1 -19z m27
-81 c7 -6 6 -7 -4 -4 -8 2 -16 12 -17 23 -2 13 -1 15 4 4 3 -8 11 -19 17 -23z
m-24 -172 c14 -16 10 -18 -14 -9 -9 3 -16 10 -16 15 0 14 16 11 30 -6z m2880
5 c0 -14 -24 -17 -82 -12 -81 6 -72 19 12 19 39 0 70 -3 70 -7z m-2823 -36
c-3 -3 -12 -4 -19 -1 -8 3 -5 6 6 6 11 1 17 -2 13 -5z"/>
<path d="M4791 5714 c-16 -56 -14 -85 9 -122 41 -66 121 -71 169 -9 12 16 12
17 -8 9 -12 -4 -37 -6 -56 -4 -30 4 -38 11 -60 55 -14 28 -25 58 -25 66 0 9
-4 22 -9 30 -7 11 -12 4 -20 -25z"/>
<path d="M4913 5289 c-24 -4 -58 -15 -78 -25 -42 -20 -126 -93 -107 -94 7 0
48 16 90 35 85 40 211 75 266 75 20 0 36 5 36 10 0 12 -146 12 -207 -1z"/>
<path d="M4887 2374 c-49 -27 -56 -101 -12 -118 73 -27 144 36 113 101 -16 34
-59 41 -101 17z"/>
</g>
</svg>
