<?xml version="1.0" standalone="no"?>
<!DOCTYPE svg PUBLIC "-//W3C//DTD SVG 20010904//EN"
 "http://www.w3.org/TR/2001/REC-SVG-20010904/DTD/svg10.dtd">
<svg version="1.0" xmlns="http://www.w3.org/2000/svg"
 width="989.000000pt" height="989.000000pt" viewBox="0 0 989.000000 989.000000"
 preserveAspectRatio="xMidYMid meet">

<g transform="translate(0.000000,989.000000) scale(0.100000,-0.100000)"
fill="#000000" stroke="none">
<path d="M4875 9403 c-308 -25 -776 -188 -1102 -384 -297 -178 -387 -258 -612
-544 -193 -244 -428 -654 -571 -994 -230 -547 -393 -1264 -403 -1776 l-2 -130
70 -120 c158 -272 388 -607 693 -1008 39 -52 72 -100 72 -105 0 -5 -26 -17
-58 -26 -199 -55 -381 -196 -510 -395 -96 -146 -142 -273 -226 -623 -30 -124
-61 -241 -69 -260 -8 -18 -47 -80 -88 -138 -41 -58 -119 -171 -172 -252 -54
-82 -102 -148 -107 -148 -10 0 -95 135 -160 255 -326 602 -488 1250 -490 1961
-1 615 147 1233 427 1789 187 371 399 679 685 996 111 122 314 316 385 365 38
28 65 62 130 170 46 75 105 168 131 207 67 100 68 102 51 92 -274 -167 -661
-502 -900 -780 -531 -618 -865 -1295 -1018 -2060 -154 -770 -75 -1607 224
-2370 293 -750 829 -1463 1425 -1897 522 -380 1114 -608 1815 -699 136 -18
221 -22 425 -23 301 0 461 16 753 75 1082 218 1938 833 2578 1854 84 135 266
495 318 630 158 409 243 752 298 1195 25 207 25 730 0 915 -98 712 -315 1297
-695 1880 -268 411 -678 854 -997 1077 -126 87 -297 200 -300 197 -1 -2 31
-56 71 -119 41 -63 95 -153 122 -199 36 -64 60 -93 101 -124 126 -93 379 -333
503 -477 340 -395 626 -869 780 -1295 132 -366 192 -616 240 -1005 20 -162 17
-709 -5 -880 -59 -459 -142 -769 -307 -1154 -95 -222 -294 -576 -324 -576 -7
0 -25 21 -40 47 -33 58 -68 110 -179 268 -142 201 -139 194 -211 475 -114 447
-187 612 -350 787 -103 110 -267 210 -403 244 -29 7 -53 16 -53 20 0 5 53 79
118 166 259 345 424 597 627 956 l78 138 -7 149 c-8 179 -26 323 -71 570 -166
903 -503 1669 -999 2272 -117 142 -141 167 -221 231 -234 184 -588 370 -899
472 -144 48 -328 91 -421 100 -33 3 -71 7 -85 8 -14 2 -43 1 -65 0z m205 -149
c282 -53 604 -179 900 -352 270 -157 358 -233 548 -471 313 -390 584 -920 755
-1481 93 -303 174 -705 212 -1047 20 -187 20 -192 -7 -203 -14 -5 -17 -9 -8
-9 10 -1 15 -10 15 -28 -1 -35 -13 -63 -60 -138 -28 -46 -35 -53 -30 -30 3 17
11 32 16 33 5 2 9 10 9 18 0 8 -6 11 -15 8 -17 -7 -36 -69 -30 -98 3 -12 -5
-38 -18 -58 -12 -20 -44 -75 -71 -122 -27 -48 -51 -84 -54 -82 -2 3 3 19 12
37 9 18 16 37 16 44 0 7 9 20 20 30 24 22 70 99 70 117 -1 8 -6 6 -15 -6 -8
-11 -15 -18 -15 -15 0 2 25 65 54 139 39 94 52 138 45 146 -6 7 -13 38 -16 68
-3 31 -9 56 -13 56 -5 0 -6 -10 -3 -22 5 -23 4 -22 -16 2 -27 32 -113 175
-158 265 -19 38 -64 150 -99 250 -82 230 -100 276 -140 355 -21 39 -29 67 -23
70 14 9 -100 200 -160 269 -27 31 -27 39 4 33 14 -2 25 -11 25 -18 0 -8 5 -14
11 -14 7 0 18 -8 25 -17 21 -30 28 -6 9 34 -54 116 -299 368 -695 717 -334
294 -735 549 -1020 651 -41 14 -106 38 -145 51 -93 34 -138 29 -309 -36 -380
-142 -644 -312 -1020 -654 -240 -220 -651 -711 -826 -991 -80 -126 -138 -345
-171 -640 -10 -87 -10 -131 0 -212 13 -102 18 -117 119 -373 25 -64 30 -93 35
-200 6 -141 25 -270 39 -267 10 2 20 -12 156 -208 76 -110 242 -332 298 -399
9 -10 50 -62 91 -115 87 -111 110 -138 212 -245 84 -87 75 -85 -79 17 -148 98
-251 181 -351 284 -83 84 -266 314 -356 446 -23 34 -70 91 -104 127 -34 36
-92 106 -129 155 -68 92 -264 395 -294 452 -49 96 20 657 140 1137 147 587
382 1110 693 1541 178 248 317 401 451 499 237 174 591 348 885 436 260 77
424 95 585 64z m243 -1344 c102 -49 221 -114 312 -169 123 -75 119 -72 104
-83 -10 -7 -8 -8 8 -3 23 6 42 -10 20 -18 -6 -2 -48 12 -92 33 -44 21 -129 61
-189 89 -60 29 -111 50 -113 47 -3 -2 15 -19 39 -36 23 -17 51 -38 62 -46 10
-9 54 -42 97 -74 43 -32 75 -61 71 -66 -4 -4 -2 -4 5 -1 6 4 17 1 25 -6 7 -7
29 -24 48 -37 l35 -25 -50 -7 c-27 -4 -117 -7 -200 -7 -207 0 -196 1 -155 -20
19 -11 54 -39 76 -62 40 -43 61 -61 135 -117 19 -15 70 -59 113 -99 65 -60 75
-72 59 -77 -24 -8 -119 41 -182 93 -38 31 -43 33 -31 12 18 -35 35 -50 120
-113 41 -30 91 -74 110 -98 40 -49 52 -73 24 -49 -10 9 -33 17 -50 17 -34 1
-144 52 -215 101 -43 29 -80 64 -153 146 -20 22 -33 31 -29 21 13 -39 90 -175
103 -186 4 -3 40 -50 80 -104 40 -55 87 -115 104 -134 30 -34 39 -44 110 -122
41 -45 125 -116 201 -170 33 -24 53 -41 45 -38 -169 56 -225 79 -330 136 -132
72 -205 123 -342 239 -197 166 -434 424 -410 447 4 4 1 6 -7 4 -7 -1 -16 3
-19 11 -3 8 0 11 7 7 20 -13 12 0 -16 25 -25 22 -26 22 -9 2 11 -13 16 -23 12
-23 -10 0 -45 42 -46 55 0 6 -9 16 -20 23 -11 7 -20 21 -20 32 0 10 -6 23 -14
27 -7 4 -23 26 -35 48 l-21 40 2 -50 c1 -27 5 -57 9 -65 4 -8 17 -44 29 -80
42 -124 128 -276 363 -641 l36 -56 -47 2 c-62 3 -77 10 -142 64 -104 87 -218
207 -285 301 -52 72 -50 70 -79 105 l-24 30 13 -63 c7 -35 15 -66 19 -69 3 -3
0 -13 -7 -21 -7 -10 -8 -13 -1 -9 8 4 13 -4 16 -23 2 -16 1 -27 -4 -24 -4 3
-8 -1 -8 -8 0 -31 -66 105 -101 207 -25 75 -49 128 -49 108 0 -17 48 -147 80
-218 52 -115 67 -150 75 -175 4 -14 20 -50 35 -80 14 -31 29 -64 33 -74 13
-34 -18 0 -67 74 -101 149 -219 440 -232 569 -7 61 -7 61 20 61 19 0 32 -9 46
-32 11 -18 20 -26 20 -18 0 13 1 13 10 0 5 -8 10 -10 10 -4 0 6 -9 19 -20 29
-22 20 -17 39 9 32 10 -2 18 1 18 8 0 7 -6 11 -13 8 -6 -2 -15 0 -19 6 -3 6 2
11 12 12 10 0 13 3 6 6 -10 3 -9 11 3 34 16 32 97 96 102 81 2 -6 11 -8 21 -5
15 4 19 -4 25 -48 9 -66 28 -129 39 -129 8 0 6 30 -7 118 -3 18 -1 30 3 28 4
-3 6 5 4 18 -5 26 30 116 46 116 5 0 28 -23 51 -50 23 -28 46 -47 51 -44 6 3
6 10 1 17 -21 27 -23 84 -3 129 22 52 47 67 67 41 13 -17 15 -17 29 1 18 23
12 34 -10 16 -8 -7 -15 -8 -15 -3 0 10 63 43 81 43 6 0 7 -5 3 -12 -4 -7 -3
-8 5 -4 6 4 9 11 6 15 -6 11 82 44 117 44 15 0 26 4 25 9 -2 12 80 47 111 47
12 1 59 -17 105 -39z m472 -280 c-3 -5 -12 -10 -18 -10 -7 0 -6 4 3 10 19 12
23 12 15 0z m-1185 -4 c0 -3 -4 -8 -10 -11 -5 -3 -10 -1 -10 4 0 6 5 11 10 11
6 0 10 -2 10 -4z m-400 -282 c99 -355 282 -667 545 -929 98 -98 277 -235 307
-235 5 0 -8 33 -30 73 -141 258 -202 387 -183 387 4 0 18 -12 32 -26 72 -79
323 -254 426 -299 l42 -18 -20 -38 c-24 -47 -53 -158 -44 -167 4 -4 11 1 16
10 5 9 30 42 56 74 l47 58 12 -80 c14 -96 35 -148 77 -193 63 -66 152 -79 243
-37 106 49 148 138 149 313 0 131 3 134 79 75 57 -43 86 -92 86 -142 0 -34
-33 -112 -67 -159 -31 -43 117 55 170 112 l48 52 -7 -40 c-34 -206 -183 -474
-322 -582 -27 -21 -62 -48 -78 -61 l-29 -23 70 6 c38 3 101 17 140 30 38 13
71 22 73 21 5 -5 -28 -75 -56 -119 -50 -79 -135 -177 -212 -244 -211 -183
-543 -351 -794 -403 -126 -26 -280 15 -570 150 -286 134 -489 314 -631 563
-15 26 -26 50 -23 52 2 2 33 -7 69 -20 69 -24 209 -44 209 -29 0 5 -19 21 -43
36 -164 105 -302 337 -342 577 l-7 44 49 -42 c27 -24 72 -56 101 -72 l51 -30
-33 56 c-20 33 -37 77 -41 106 -6 45 -4 56 22 97 16 26 51 62 78 80 l50 34 6
-124 c7 -143 18 -186 65 -251 43 -60 96 -87 169 -87 136 0 235 117 235 279 l1
56 37 -40 c20 -22 50 -56 66 -75 l28 -35 -6 47 c-21 173 -197 346 -402 394
-49 11 -99 15 -172 12 -90 -4 -102 -3 -98 11 3 9 10 51 17 93 17 111 16 111
119 93 47 -8 127 -25 178 -39 50 -13 92 -21 92 -17 0 15 -84 91 -119 107 -52
25 -130 44 -180 44 l-43 0 7 38 c15 81 88 285 141 392 61 126 104 203 110 197
2 -2 18 -53 34 -113z m-332 -154 c-11 -36 -28 -91 -37 -123 -9 -32 -19 -56
-21 -53 -3 2 -6 -10 -7 -27 -3 -60 -15 -107 -25 -101 -6 4 -8 -2 -3 -15 3 -11
2 -21 -3 -21 -5 0 -12 -10 -15 -22 -4 -12 -9 -19 -12 -16 -4 3 -18 -5 -33 -19
l-27 -25 -3 23 c-12 77 90 401 120 383 4 -3 8 2 8 10 0 21 35 77 43 69 4 -3 7
1 7 11 0 14 2 14 14 4 11 -11 10 -23 -6 -78z m2032 20 c19 -11 32 -19 29 -20
-11 0 -79 30 -79 35 0 9 14 5 50 -15z m-42 -21 c-2 -6 3 -14 10 -16 6 -3 12 0
12 6 0 6 5 11 11 11 6 0 9 -8 6 -19 -3 -14 0 -17 13 -14 10 3 21 0 24 -6 9
-13 36 -15 36 -2 0 5 -10 11 -22 14 -12 4 -19 9 -15 13 17 17 143 -59 130 -79
-3 -6 -1 -7 5 -3 18 11 37 -4 21 -16 -10 -7 -8 -8 7 -3 45 12 228 -225 210
-272 -3 -8 -1 -11 4 -8 6 4 10 -7 10 -26 l0 -31 -19 23 c-36 44 -34 10 2 -50
71 -119 79 -146 84 -278 6 -125 -2 -151 -28 -101 -7 13 -35 50 -62 83 -46 55
-73 85 -162 181 -26 28 -94 102 -217 237 -70 76 -47 74 122 -16 63 -33 125
-67 138 -75 21 -13 22 -13 16 4 -7 18 -89 125 -146 189 -83 94 -206 250 -202
257 8 12 14 10 12 -3z m-2309 -213 c-8 -30 -31 -178 -45 -286 -4 -30 -8 -161
-9 -289 -1 -168 -5 -236 -13 -239 -7 -2 -12 -10 -12 -18 0 -8 -4 -14 -10 -14
-5 0 -10 6 -10 13 0 8 -3 8 -9 -2 -18 -28 -54 28 -90 141 -13 41 -33 252 -26
271 3 7 1 32 -4 57 l-9 45 -2 -55 c-2 -68 -7 -110 -14 -118 -3 -3 -6 10 -7 29
-1 19 -3 59 -5 89 -6 66 16 234 26 206 5 -16 8 -15 19 12 8 18 17 32 22 32 8
0 26 15 106 88 20 17 39 32 44 32 4 0 16 13 25 30 22 36 35 21 23 -24z m-405
-289 c0 -45 4 -100 9 -122 10 -40 12 -60 15 -170 2 -43 5 -56 12 -45 6 10 8 4
4 -21 -4 -23 2 -63 16 -110 29 -99 44 -153 78 -284 31 -119 47 -170 69 -225 8
-20 15 -43 17 -52 1 -9 10 -32 21 -51 17 -32 17 -36 2 -51 -15 -15 -19 -15
-46 -1 -33 17 -80 80 -114 152 -12 27 -30 59 -39 72 -10 13 -14 29 -11 34 3 6
1 7 -4 4 -18 -11 -88 208 -76 239 3 8 0 14 -7 14 -7 0 -10 11 -9 28 2 15 -3
38 -11 52 -10 18 -14 65 -14 165 -1 254 12 405 36 405 4 0 8 6 8 13 0 7 10 17
23 23 12 7 22 12 22 13 0 0 0 -36 -1 -82z m618 -79 c-4 -102 -7 -118 -22 -123
-10 -3 -35 -17 -56 -31 l-37 -26 7 126 c3 69 9 132 12 140 6 16 85 47 95 37 4
-3 4 -59 1 -123z m1555 15 c60 -36 136 -79 171 -95 34 -15 62 -30 62 -33 0 -2
-25 -21 -56 -40 -52 -34 -57 -35 -79 -21 -43 28 -231 256 -211 256 3 0 54 -30
113 -67z m1377 -88 c-23 -268 -49 -436 -83 -526 -16 -41 -117 -215 -143 -244
-4 -5 3 18 16 51 38 99 74 302 61 344 -4 11 -2 20 4 20 5 0 10 12 9 28 0 15 7
52 16 82 11 38 15 44 12 20 -2 -19 -7 -43 -11 -52 -4 -10 -3 -18 3 -18 5 0 16
24 22 53 7 28 17 60 22 70 13 26 48 211 48 257 0 21 3 47 8 57 9 22 21 -83 16
-142z m-1544 120 c7 -9 11 -18 8 -20 -8 -8 -38 6 -38 17 0 5 -5 6 -12 2 -7 -4
-8 -3 -4 4 10 17 31 15 46 -3z m445 -579 c24 -4 62 -1 95 7 70 18 85 9 64 -37
-37 -76 -154 -108 -209 -56 -14 13 -25 34 -25 47 0 13 -4 22 -9 19 -5 -3 -11
12 -13 33 l-3 40 30 -23 c17 -13 48 -26 70 -30z m-1423 -6 c22 7 52 19 65 27
22 15 25 14 38 -3 20 -27 18 -43 -10 -79 -54 -72 -196 -62 -213 15 -2 8 -11
23 -19 33 -10 10 -11 17 -5 17 6 0 9 6 6 14 -4 9 11 6 45 -11 45 -21 56 -23
93 -13z m2688 -1136 c-49 -123 -155 -329 -207 -403 -78 -110 -291 -317 -428
-416 -34 -24 -30 -18 25 40 36 38 67 72 70 75 123 131 345 434 475 650 31 52
64 107 74 122 28 47 23 14 -9 -68z m-959 -212 c27 -62 47 -155 55 -261 5 -64
4 -91 -4 -91 -6 0 -16 19 -22 43 -6 23 -15 57 -20 75 -5 17 -28 70 -53 115
l-44 83 24 55 c26 59 29 59 64 -19z m-1941 9 l23 -50 -31 -48 c-41 -64 -58
-106 -77 -192 -24 -104 -39 -92 -32 27 8 122 60 312 86 312 4 0 18 -22 31 -49z
m540 -73 c98 -71 326 -168 395 -168 38 0 183 49 260 87 81 41 158 91 198 128
l27 26 0 -58 c0 -57 -1 -59 -37 -78 -60 -32 -156 -134 -205 -218 -44 -75 -91
-201 -103 -280 -5 -29 -14 -43 -45 -63 -56 -37 -105 -41 -160 -11 -52 28 -63
47 -84 139 -33 147 -140 313 -260 404 l-76 56 0 56 0 56 28 -25 c15 -14 43
-37 62 -51z m-213 -80 c58 -29 183 -153 228 -228 87 -144 129 -315 123 -505
-5 -130 -19 -178 -74 -251 -32 -41 -47 -49 -123 -59 -60 -8 -57 -16 -32 80 6
22 11 83 11 135 1 220 -80 473 -192 595 -62 68 -113 96 -190 102 -32 3 -58 9
-58 13 0 19 106 101 153 119 68 26 100 26 154 -1z m1414 -13 c44 -23 119 -89
119 -105 0 -4 -25 -10 -55 -14 -143 -17 -244 -117 -320 -320 -32 -84 -65 -273
-65 -370 0 -63 15 -145 35 -197 8 -22 -22 -29 -81 -18 -107 20 -164 122 -172
307 -11 253 67 482 214 628 93 92 161 128 228 119 27 -3 70 -17 97 -30z
m-1618 -209 c82 -34 176 -193 223 -376 22 -84 27 -128 28 -220 0 -131 -10
-162 -55 -186 -53 -27 -103 -14 -161 43 -107 104 -191 289 -218 477 -22 147
15 255 90 269 46 8 60 7 93 -7z m1776 -20 c108 -103 28 -504 -137 -687 -91
-101 -190 -117 -233 -37 -21 39 -30 147 -19 237 30 245 123 446 235 506 45 24
118 15 154 -19z m-2649 -255 c63 -44 171 -118 240 -165 207 -142 373 -258 451
-316 l74 -55 -541 -5 c-524 -5 -543 -6 -564 -25 -40 -35 -60 -95 -61 -184 -1
-45 -3 -81 -5 -79 -2 2 -11 40 -19 83 -18 86 -57 227 -62 222 -1 -2 -7 -118
-13 -258 -12 -296 -19 -361 -67 -604 -48 -244 -65 -296 -109 -335 -29 -25 -42
-30 -62 -25 -49 12 -107 43 -182 97 -108 78 -103 76 -95 39 4 -18 18 -59 31
-93 14 -33 24 -61 22 -62 -30 -13 -76 -42 -84 -53 -10 -11 -1 -24 40 -63 46
-44 126 -176 126 -210 0 -5 -15 -10 -34 -10 -61 0 -68 -7 -46 -46 45 -79 74
-113 133 -156 121 -88 146 -101 186 -93 87 18 201 5 357 -40 59 -17 48 17 85
-264 19 -147 19 -154 2 -167 -23 -17 -28 -17 -45 -1 -8 6 -21 17 -30 22 -52
31 -275 200 -298 226 -3 3 -39 32 -80 64 -73 59 -298 277 -376 365 -21 25 -76
89 -121 143 -45 54 -85 97 -89 97 -12 -2 -96 131 -91 144 3 7 44 72 91 144 47
71 99 163 116 203 36 90 74 138 127 163 37 18 43 25 56 75 8 31 47 180 86 331
120 462 153 555 243 687 116 168 294 282 443 283 47 0 59 -6 165 -79z m3684
59 c80 -25 199 -103 259 -170 142 -158 205 -320 353 -907 l68 -270 41 -14 c31
-11 49 -27 82 -76 23 -34 51 -88 62 -119 12 -31 60 -117 106 -191 l84 -135
-24 -36 c-13 -19 -50 -65 -82 -101 -32 -36 -98 -110 -147 -166 -49 -55 -175
-185 -279 -288 l-190 -188 -27 53 c-15 29 -35 67 -46 84 l-18 32 121 123 c184
188 231 239 222 245 -5 3 -14 2 -19 -1 -6 -3 -20 -3 -31 0 -18 6 -5 18 82 75
57 37 124 85 148 107 l44 39 -30 22 c-18 13 -58 26 -98 31 -37 6 -69 11 -71
13 -1 2 17 37 41 78 24 41 42 77 39 82 -11 18 -51 5 -172 -57 -70 -36 -141
-68 -158 -71 -50 -10 -68 31 -98 226 -61 395 -67 462 -67 733 0 141 -3 257 -7
257 -7 0 -30 -71 -48 -142 -10 -43 -21 -33 -26 23 -4 40 -12 58 -36 82 l-31
30 -541 1 c-297 0 -539 4 -538 8 2 4 59 45 128 90 132 88 384 259 435 294 17
12 73 50 125 84 52 34 113 77 135 95 22 17 47 34 55 38 31 11 90 6 154 -13z
m-34 -738 c0 -4 -16 -23 -35 -42 -19 -19 -35 -39 -35 -45 0 -7 -11 -18 -25
-25 -14 -7 -25 -19 -25 -27 0 -10 -88 -13 -482 -12 -266 0 -641 -3 -835 -7
l-352 -7 -62 -126 c-63 -129 -182 -336 -200 -346 -5 -4 -7 -10 -5 -14 3 -4
-12 -13 -32 -20 -93 -33 -203 -131 -241 -215 -20 -45 -232 -266 -366 -382 -44
-38 -82 -71 -85 -75 -3 -3 -23 -18 -45 -35 -22 -16 -46 -34 -55 -41 -88 -68
-298 -209 -385 -258 -27 -15 -84 -47 -125 -70 -41 -23 -102 -52 -135 -66 -33
-13 -64 -28 -68 -34 -5 -5 -6 -67 -2 -137 6 -132 -2 -175 -31 -164 -8 3 -14 1
-14 -5 0 -6 -10 -9 -22 -7 -18 2 -24 12 -30 43 -15 90 -67 454 -73 515 -3 36
-14 144 -24 240 -11 96 -27 279 -36 405 -9 127 -23 298 -31 380 -8 83 -19 193
-24 245 -21 204 -26 311 -15 318 5 4 627 9 1380 12 754 3 1628 6 1943 8 314 1
572 -2 572 -6z m-1872 -797 c20 -44 -1 -69 -102 -118 -50 -24 -100 -47 -111
-50 -26 -9 -87 28 -83 49 4 21 225 143 259 144 18 0 29 -7 37 -25z m147 -90
c46 -30 86 -63 88 -72 10 -40 8 -191 -3 -198 -15 -9 -78 22 -90 45 -5 10 -10
41 -10 68 0 49 -1 50 -55 86 -31 20 -58 43 -62 52 -8 21 17 74 34 74 8 0 52
-25 98 -55z m-113 -89 c25 -19 48 -42 52 -51 17 -45 -2 -145 -28 -145 -6 0
-38 -14 -71 -30 -79 -40 -100 -38 -157 11 -47 40 -48 42 -48 97 0 31 4 62 8
68 14 22 138 84 168 84 20 0 47 -12 76 -34z m-323 -22 c29 -24 31 -30 31 -96
0 -75 6 -85 85 -145 l29 -23 -24 -25 c-13 -14 -28 -25 -33 -25 -18 0 -130 75
-142 95 -16 26 -20 197 -5 225 14 26 22 25 59 -6z m467 -207 c17 -15 25 -30
22 -39 -5 -13 -79 -56 -226 -132 -35 -18 -37 -18 -70 0 -68 36 -55 57 71 120
49 24 98 51 110 59 31 21 62 19 93 -8z m1762 -708 c4 -37 -25 -208 -39 -230
-6 -11 -17 -5 -49 26 -36 35 -40 44 -40 90 0 27 5 85 12 127 l11 78 51 -29
c44 -24 52 -33 54 -62z m-838 -392 c0 -7 -10 -19 -22 -27 -28 -18 -630 -27
-1983 -29 l-870 -1 -52 30 c-29 17 -53 33 -53 35 0 3 670 5 1490 5 1191 0
1490 -3 1490 -13z"/>
<path d="M6080 8079 c64 -78 153 -179 211 -241 49 -50 183 -199 238 -263 97
-113 241 -318 241 -344 0 -6 3 -11 8 -11 7 0 16 -15 75 -120 16 -30 54 -89 82
-130 28 -41 76 -114 105 -162 29 -49 56 -88 60 -88 12 0 -42 189 -90 310 -29
73 -131 256 -200 356 -202 297 -449 546 -691 699 -88 55 -89 55 -39 -6z"/>
<path d="M2443 5975 c0 -22 2 -30 4 -17 2 12 2 30 0 40 -3 9 -5 -1 -4 -23z"/>
<path d="M2433 5885 c0 -22 2 -30 4 -17 2 12 2 30 0 40 -3 9 -5 -1 -4 -23z"/>
<path d="M2422 5750 c0 -14 2 -19 5 -12 2 6 2 18 0 25 -3 6 -5 1 -5 -13z"/>
<path d="M7431 5604 c0 -11 3 -14 6 -6 3 7 2 16 -1 19 -3 4 -6 -2 -5 -13z"/>
<path d="M7360 5440 c0 -5 5 -10 10 -10 6 0 10 5 10 10 0 6 -4 10 -10 10 -5 0
-10 -4 -10 -10z"/>
<path d="M2730 5021 c0 -6 4 -13 10 -16 6 -3 7 1 4 9 -7 18 -14 21 -14 7z"/>
<path d="M5048 7873 c7 -3 16 -2 19 1 4 3 -2 6 -13 5 -11 0 -14 -3 -6 -6z"/>
<path d="M5040 7840 c0 -5 9 -10 21 -10 11 0 17 5 14 10 -3 6 -13 10 -21 10
-8 0 -14 -4 -14 -10z"/>
<path d="M4990 7830 c0 -5 5 -10 11 -10 5 0 7 5 4 10 -3 6 -8 10 -11 10 -2 0
-4 -4 -4 -10z"/>
<path d="M5710 7670 c0 -5 5 -10 11 -10 5 0 7 5 4 10 -3 6 -8 10 -11 10 -2 0
-4 -4 -4 -10z"/>
<path d="M4592 7560 c0 -14 2 -19 5 -12 2 6 2 18 0 25 -3 6 -5 1 -5 -13z"/>
<path d="M4914 7302 c0 -10 8 -18 18 -18 16 0 16 2 1 18 -9 10 -17 18 -17 18
-1 0 -2 -8 -2 -18z"/>
<path d="M5321 7286 c8 -8 88 -10 95 -3 4 4 -17 7 -46 7 -29 0 -51 -2 -49 -4z"/>
<path d="M5300 6986 c0 -2 7 -7 16 -10 8 -3 12 -2 9 4 -6 10 -25 14 -25 6z"/>
<path d="M5340 6869 c0 -5 5 -7 10 -4 6 3 10 8 10 11 0 2 -4 4 -10 4 -5 0 -10
-5 -10 -11z"/>
<path d="M5090 6711 c0 -6 4 -13 10 -16 6 -3 7 1 4 9 -7 18 -14 21 -14 7z"/>
<path d="M4797 5720 c-18 -65 5 -139 49 -159 36 -16 81 -14 88 5 3 9 2 12 -5
9 -16 -10 -63 13 -78 38 -8 12 -22 47 -31 77 -14 48 -17 52 -23 30z"/>
<path d="M4915 5286 c-27 -7 -68 -22 -90 -34 -47 -25 -101 -69 -94 -76 2 -3
43 13 91 34 90 41 194 70 256 71 30 0 33 2 17 9 -29 12 -122 10 -180 -4z"/>
<path d="M3861 7224 c0 -11 3 -14 6 -6 3 7 2 16 -1 19 -3 4 -6 -2 -5 -13z"/>
<path d="M6020 7115 c-8 -9 -8 -15 -2 -15 12 0 26 19 19 26 -2 2 -10 -2 -17
-11z"/>
<path d="M5951 7113 c0 -5 4 -17 9 -28 8 -18 9 -17 9 8 1 15 -3 27 -9 27 -5 0
-10 -3 -9 -7z"/>
<path d="M6185 6970 c3 -5 8 -10 11 -10 2 0 4 5 4 10 0 6 -5 10 -11 10 -5 0
-7 -4 -4 -10z"/>
<path d="M3081 6434 c0 -11 3 -14 6 -6 3 7 2 16 -1 19 -3 4 -6 -2 -5 -13z"/>
<path d="M3111 6394 c0 -11 3 -14 6 -6 3 7 2 16 -1 19 -3 4 -6 -2 -5 -13z"/>
<path d="M3150 6221 c0 -6 4 -13 10 -16 6 -3 7 1 4 9 -7 18 -14 21 -14 7z"/>
<path d="M3160 6159 c0 -7 -8 -18 -17 -26 -10 -8 -12 -12 -5 -8 7 4 12 0 12
-9 0 -8 5 -18 10 -21 7 -4 8 3 4 21 -5 18 -3 25 4 20 6 -4 8 2 5 14 -6 22 -13
27 -13 9z"/>
<path d="M3181 6104 c0 -11 3 -14 6 -6 3 7 2 16 -1 19 -3 4 -6 -2 -5 -13z"/>
<path d="M3221 5977 c-1 -10 -5 -15 -11 -12 -6 4 -7 -1 -3 -11 6 -15 7 -15 15
0 5 9 7 22 4 29 -2 7 -5 4 -5 -6z"/>
<path d="M3229 5911 c6 -10 9 -20 8 -22 -1 -2 0 -3 2 -1 11 7 8 31 -5 36 -11
4 -12 1 -5 -13z"/>
<path d="M3186 5877 c3 -10 9 -15 12 -12 3 3 0 11 -7 18 -10 9 -11 8 -5 -6z"/>
<path d="M3250 5834 c0 -5 7 -18 15 -28 8 -11 15 -16 15 -10 0 5 -7 18 -15 28
-8 11 -15 16 -15 10z"/>
<path d="M3284 5779 c-3 -6 -2 -15 4 -21 6 -6 12 -6 17 3 6 8 4 10 -5 4 -10
-6 -12 -4 -7 8 7 19 2 23 -9 6z"/>
<path d="M3304 5739 c-4 -8 -3 -9 4 -5 7 4 12 3 12 -3 0 -5 -6 -12 -12 -14
-10 -4 -10 -8 1 -15 8 -6 10 -15 5 -23 -6 -10 -3 -10 11 1 17 13 18 13 13 -1
-4 -10 -1 -16 8 -16 17 0 17 7 0 29 -7 10 -16 14 -21 10 -4 -4 -4 3 -1 15 7
23 -8 40 -20 22z"/>
<path d="M3246 5707 c3 -10 9 -15 12 -12 3 3 0 11 -7 18 -10 9 -11 8 -5 -6z"/>
<path d="M3266 5683 c-6 -14 -5 -15 5 -6 7 7 10 15 7 18 -3 3 -9 -2 -12 -12z"/>
<path d="M3325 5640 c3 -5 8 -10 11 -10 2 0 4 5 4 10 0 6 -5 10 -11 10 -5 0
-7 -4 -4 -10z"/>
<path d="M3310 5611 c0 -5 5 -13 10 -16 6 -3 10 -2 10 4 0 5 -4 13 -10 16 -5
3 -10 2 -10 -4z"/>
<path d="M2771 3574 c0 -11 3 -14 6 -6 3 7 2 16 -1 19 -3 4 -6 -2 -5 -13z"/>
<path d="M4893 2363 c-27 -14 -33 -23 -33 -48 0 -37 15 -55 48 -55 56 0 91 48
70 95 -13 29 -38 31 -85 8z"/>
<path d="M2375 7378 c-150 -162 -339 -410 -460 -603 -446 -712 -650 -1516
-595 -2337 27 -395 121 -826 246 -1124 25 -60 51 -125 59 -144 36 -99 209
-414 224 -408 11 4 181 336 181 353 0 7 -7 20 -15 29 -18 18 -57 106 -47 106
3 0 -3 7 -14 15 -12 8 -24 29 -28 47 -3 17 -21 64 -40 102 -18 39 -38 93 -45
121 -7 27 -17 55 -22 61 -6 7 -12 31 -15 54 -3 23 -12 52 -20 65 -8 12 -19 59
-24 103 -5 45 -13 90 -18 99 -4 10 -7 29 -6 43 1 14 -6 43 -16 65 -10 22 -23
81 -29 130 -6 50 -16 124 -21 165 -13 99 -19 599 -8 606 5 3 8 31 6 62 -2 55
6 108 39 272 8 41 19 102 24 135 5 33 13 69 18 80 6 11 12 36 14 55 3 19 15
71 27 115 12 44 25 94 29 110 4 17 15 44 24 62 10 18 17 39 17 48 0 10 16 51
36 93 20 43 45 100 54 128 10 28 34 80 53 115 29 55 47 85 97 169 28 48 61
135 76 200 44 204 154 567 233 769 22 58 39 106 37 108 -2 2 -34 -29 -71 -69z"/>
<path d="M7380 7446 c0 -3 15 -43 34 -90 60 -148 143 -414 227 -729 18 -65 42
-133 53 -150 12 -18 44 -75 71 -127 28 -52 53 -96 58 -98 4 -2 7 -8 7 -13 0
-5 14 -37 31 -71 32 -67 119 -282 119 -295 -1 -7 39 -140 62 -208 6 -16 16
-60 24 -97 7 -37 20 -89 28 -115 39 -130 81 -429 72 -515 -4 -40 -2 -58 7 -61
21 -7 23 -368 3 -457 -10 -40 -17 -107 -17 -149 1 -140 -50 -449 -79 -486 -4
-5 -13 -46 -20 -90 -7 -44 -15 -84 -19 -90 -4 -5 -15 -35 -25 -65 -9 -31 -25
-69 -35 -86 -10 -17 -22 -45 -26 -63 -13 -61 -114 -259 -126 -247 -2 3 -4 -9
-3 -27 0 -18 24 -81 53 -140 29 -60 63 -138 75 -175 12 -36 27 -67 32 -69 20
-6 178 283 259 476 185 436 279 887 292 1391 12 506 -58 943 -227 1410 -17 47
-34 94 -40 105 -5 11 -35 79 -66 150 -126 286 -319 602 -514 845 -20 25 -58
72 -84 105 -103 130 -226 255 -226 231z"/>
<path d="M7980 4415 c0 -19 5 -35 10 -35 6 0 10 16 10 35 0 19 -4 35 -10 35
-5 0 -10 -16 -10 -35z"/>
<path d="M1856 4323 c-4 -9 -2 -21 4 -27 7 -7 10 -2 10 17 0 31 -5 34 -14 10z"/>
<path d="M7983 4215 c0 -22 2 -30 4 -17 2 12 2 30 0 40 -3 9 -5 -1 -4 -23z"/>
<path d="M7937 4163 c-10 -9 -8 -33 2 -33 5 0 11 9 14 20 5 20 -3 26 -16 13z"/>
<path d="M8001 4085 c0 -22 4 -47 9 -55 13 -19 13 46 0 75 -7 16 -9 11 -9 -20z"/>
<path d="M8069 4082 c-3 -20 -2 -29 4 -23 5 5 7 19 5 32 -3 20 -5 19 -9 -9z"/>
<path d="M1917 4053 c-16 -15 -5 -82 22 -133 28 -53 51 -75 51 -48 -1 7 -7 24
-15 38 -8 14 -14 35 -15 48 0 23 -18 62 -34 73 -5 4 -5 12 -2 18 8 12 3 15 -7
4z"/>
<path d="M7947 4043 c-11 -11 -8 -71 4 -79 19 -11 29 10 22 49 -5 36 -13 44
-26 30z"/>
<path d="M8062 4020 c0 -14 2 -19 5 -12 2 6 2 18 0 25 -3 6 -5 1 -5 -13z"/>
<path d="M7888 4024 c-12 -11 -10 -42 3 -49 14 -10 16 -4 10 28 -3 16 -9 25
-13 21z"/>
<path d="M8060 3955 c0 -8 5 -15 10 -15 6 0 10 7 10 15 0 8 -4 15 -10 15 -5 0
-10 -7 -10 -15z"/>
<path d="M7918 3883 c7 -3 16 -2 19 1 4 3 -2 6 -13 5 -11 0 -14 -3 -6 -6z"/>
</g>
</svg>
