<?xml version="1.0" encoding="UTF-8"?>
<svg xmlns="http://www.w3.org/2000/svg" xmlns:xlink="http://www.w3.org/1999/xlink" width="90px" height="90px" viewBox="0 0 90 90" version="1.1">
<g id="surface1">
<path style=" stroke:none;fill-rule:nonzero;fill:rgb(99.607843%,86.27451%,23.921569%);fill-opacity:1;" d="M 59.339844 13.601562 L 69.230469 13.601562 L 69.230469 23.488281 L 59.339844 23.488281 Z M 59.339844 13.601562 "/>
<path style=" stroke:none;fill-rule:nonzero;fill:rgb(100%,94.509804%,69.411765%);fill-opacity:1;" d="M 10.878906 13.601562 L 63.300781 13.601562 L 63.300781 23.488281 L 10.878906 23.488281 Z M 10.878906 13.601562 "/>
<path style=" stroke:none;fill-rule:nonzero;fill:rgb(30.196078%,30.196078%,30.196078%);fill-opacity:1;" d="M 69.230469 0 L 63.300781 0 L 63.300781 15.578125 L 69.230469 15.578125 C 70.863281 15.578125 72.199219 14.242188 72.199219 12.609375 L 72.199219 2.964844 C 72.199219 1.335938 70.863281 0 69.230469 0 Z M 69.230469 0 "/>
<path style=" stroke:none;fill-rule:nonzero;fill:rgb(45.098039%,45.098039%,45.098039%);fill-opacity:1;" d="M 66.265625 2.964844 L 66.265625 12.609375 C 66.265625 14.242188 64.929688 15.578125 63.300781 15.578125 L 10.878906 15.578125 C 9.246094 15.578125 7.910156 14.242188 7.910156 12.609375 L 7.910156 2.964844 C 7.910156 1.335938 9.246094 0 10.878906 0 L 63.300781 0 C 64.929688 0 66.265625 1.335938 66.265625 2.964844 Z M 66.265625 2.964844 "/>
<path style="fill:none;stroke-width:15;stroke-linecap:round;stroke-linejoin:round;stroke:rgb(30.196078%,30.196078%,30.196078%);stroke-opacity:1;stroke-miterlimit:10;" d="M 78.777778 33.755556 L 228.422222 33.755556 " transform="matrix(0.175781,0,0,0.175781,0,0)"/>
<path style=" stroke:none;fill-rule:nonzero;fill:rgb(30.196078%,30.196078%,30.196078%);fill-opacity:1;" d="M 47.570312 5.933594 C 47.570312 6.753906 46.90625 7.417969 46.089844 7.417969 C 45.269531 7.417969 44.605469 6.753906 44.605469 5.933594 C 44.605469 5.117188 45.269531 4.453125 46.089844 4.453125 C 46.90625 4.453125 47.570312 5.117188 47.570312 5.933594 Z M 47.570312 5.933594 "/>
<path style=" stroke:none;fill-rule:nonzero;fill:rgb(99.607843%,86.27451%,23.921569%);fill-opacity:1;" d="M 59.339844 35.109375 L 69.230469 35.109375 L 69.230469 45 L 59.339844 45 Z M 59.339844 35.109375 "/>
<path style=" stroke:none;fill-rule:nonzero;fill:rgb(100%,94.509804%,69.411765%);fill-opacity:1;" d="M 10.878906 35.109375 L 63.300781 35.109375 L 63.300781 45 L 10.878906 45 Z M 10.878906 35.109375 "/>
<path style=" stroke:none;fill-rule:nonzero;fill:rgb(30.196078%,30.196078%,30.196078%);fill-opacity:1;" d="M 69.230469 21.511719 L 63.300781 21.511719 L 63.300781 37.089844 L 69.230469 37.089844 C 70.863281 37.089844 72.199219 35.753906 72.199219 34.117188 L 72.199219 24.476562 C 72.199219 22.847656 70.863281 21.511719 69.230469 21.511719 Z M 69.230469 21.511719 "/>
<path style=" stroke:none;fill-rule:nonzero;fill:rgb(45.098039%,45.098039%,45.098039%);fill-opacity:1;" d="M 66.265625 24.476562 L 66.265625 34.117188 C 66.265625 35.753906 64.929688 37.089844 63.300781 37.089844 L 10.878906 37.089844 C 9.246094 37.089844 7.910156 35.753906 7.910156 34.117188 L 7.910156 24.476562 C 7.910156 22.847656 9.246094 21.511719 10.878906 21.511719 L 63.300781 21.511719 C 64.929688 21.511719 66.265625 22.847656 66.265625 24.476562 Z M 66.265625 24.476562 "/>
<path style="fill:none;stroke-width:15;stroke-linecap:round;stroke-linejoin:round;stroke:rgb(30.196078%,30.196078%,30.196078%);stroke-opacity:1;stroke-miterlimit:10;" d="M 78.777778 156.133333 L 228.422222 156.133333 " transform="matrix(0.175781,0,0,0.175781,0,0)"/>
<path style=" stroke:none;fill-rule:nonzero;fill:rgb(30.196078%,30.196078%,30.196078%);fill-opacity:1;" d="M 47.570312 27.445312 C 47.570312 28.265625 46.90625 28.929688 46.089844 28.929688 C 45.269531 28.929688 44.605469 28.265625 44.605469 27.445312 C 44.605469 26.625 45.269531 25.960938 46.089844 25.960938 C 46.90625 25.960938 47.570312 26.625 47.570312 27.445312 Z M 47.570312 27.445312 "/>
<path style=" stroke:none;fill-rule:nonzero;fill:rgb(99.607843%,86.27451%,23.921569%);fill-opacity:1;" d="M 59.339844 56.621094 L 69.230469 56.621094 L 69.230469 66.511719 L 59.339844 66.511719 Z M 59.339844 56.621094 "/>
<path style=" stroke:none;fill-rule:nonzero;fill:rgb(100%,94.509804%,69.411765%);fill-opacity:1;" d="M 10.878906 56.621094 L 63.300781 56.621094 L 63.300781 66.511719 L 10.878906 66.511719 Z M 10.878906 56.621094 "/>
<path style=" stroke:none;fill-rule:nonzero;fill:rgb(30.196078%,30.196078%,30.196078%);fill-opacity:1;" d="M 69.230469 43.023438 L 63.300781 43.023438 L 63.300781 58.597656 L 69.230469 58.597656 C 70.863281 58.597656 72.199219 57.265625 72.199219 55.628906 L 72.199219 45.988281 C 72.199219 44.359375 70.863281 43.023438 69.230469 43.023438 Z M 69.230469 43.023438 "/>
<path style=" stroke:none;fill-rule:nonzero;fill:rgb(45.098039%,45.098039%,45.098039%);fill-opacity:1;" d="M 66.265625 45.988281 L 66.265625 55.628906 C 66.265625 57.265625 64.929688 58.597656 63.300781 58.597656 L 10.878906 58.597656 C 9.246094 58.597656 7.910156 57.265625 7.910156 55.628906 L 7.910156 45.988281 C 7.910156 44.359375 9.246094 43.023438 10.878906 43.023438 L 63.300781 43.023438 C 64.929688 43.023438 66.265625 44.359375 66.265625 45.988281 Z M 66.265625 45.988281 "/>
<path style="fill:none;stroke-width:15;stroke-linecap:round;stroke-linejoin:round;stroke:rgb(30.196078%,30.196078%,30.196078%);stroke-opacity:1;stroke-miterlimit:10;" d="M 78.777778 278.488889 L 228.422222 278.488889 " transform="matrix(0.175781,0,0,0.175781,0,0)"/>
<path style=" stroke:none;fill-rule:nonzero;fill:rgb(30.196078%,30.196078%,30.196078%);fill-opacity:1;" d="M 47.570312 48.953125 C 47.570312 49.777344 46.90625 50.441406 46.089844 50.441406 C 45.269531 50.441406 44.605469 49.777344 44.605469 48.953125 C 44.605469 48.136719 45.269531 47.472656 46.089844 47.472656 C 46.90625 47.472656 47.570312 48.136719 47.570312 48.953125 Z M 47.570312 48.953125 "/>
<path style=" stroke:none;fill-rule:nonzero;fill:rgb(30.196078%,30.196078%,30.196078%);fill-opacity:1;" d="M 69.230469 64.535156 L 63.300781 64.535156 L 63.300781 80.109375 L 69.230469 80.109375 C 70.863281 80.109375 72.199219 78.777344 72.199219 77.140625 L 72.199219 67.5 C 72.199219 65.871094 70.863281 64.535156 69.230469 64.535156 Z M 69.230469 64.535156 "/>
<path style=" stroke:none;fill-rule:nonzero;fill:rgb(45.098039%,45.098039%,45.098039%);fill-opacity:1;" d="M 66.265625 67.5 L 66.265625 77.140625 C 66.265625 78.777344 64.929688 80.109375 63.300781 80.109375 L 10.878906 80.109375 C 9.246094 80.109375 7.910156 78.777344 7.910156 77.140625 L 7.910156 67.5 C 7.910156 65.871094 9.246094 64.535156 10.878906 64.535156 L 63.300781 64.535156 C 64.929688 64.535156 66.265625 65.871094 66.265625 67.5 Z M 66.265625 67.5 "/>
<path style="fill:none;stroke-width:15;stroke-linecap:round;stroke-linejoin:round;stroke:rgb(30.196078%,30.196078%,30.196078%);stroke-opacity:1;stroke-miterlimit:10;" d="M 78.777778 400.866667 L 208.177778 400.866667 " transform="matrix(0.175781,0,0,0.175781,0,0)"/>
<path style=" stroke:none;fill-rule:nonzero;fill:rgb(0.784314%,45.098039%,44.705882%);fill-opacity:1;" d="M 62.304688 50.441406 L 62.304688 86.046875 L 72.199219 87.355469 C 78.109375 83.929688 82.089844 77.542969 82.089844 70.21875 C 82.089844 59.296875 73.230469 50.441406 62.304688 50.441406 Z M 62.304688 50.441406 "/>
<path style=" stroke:none;fill-rule:nonzero;fill:rgb(0.784314%,67.45098%,67.058824%);fill-opacity:1;" d="M 62.304688 50.441406 C 69.957031 50.441406 76.152344 59.296875 76.152344 70.21875 C 76.152344 75.609375 74.644531 80.496094 72.199219 84.0625 L 52.417969 87.355469 C 46.507812 83.929688 42.527344 77.542969 42.527344 70.21875 C 42.527344 59.296875 51.386719 50.441406 62.304688 50.441406 Z M 62.304688 50.441406 "/>
<path style=" stroke:none;fill-rule:nonzero;fill:rgb(99.607843%,86.27451%,23.921569%);fill-opacity:1;" d="M 61.96875 89.996094 C 62.082031 89.996094 62.195312 90 62.304688 90 C 65.910156 90 69.289062 89.039062 72.199219 87.355469 L 72.199219 74.371094 L 60.328125 72.394531 Z M 61.96875 89.996094 "/>
<path style=" stroke:none;fill-rule:nonzero;fill:rgb(100%,94.509804%,69.411765%);fill-opacity:1;" d="M 52.417969 74.371094 L 52.417969 87.355469 C 55.328125 89.039062 58.707031 90 62.304688 90 L 62.304688 72.394531 Z M 52.417969 74.371094 "/>
<path style=" stroke:none;fill-rule:nonzero;fill:rgb(100%,85.882353%,80%);fill-opacity:1;" d="M 67.253906 65.472656 L 72.199219 74.371094 L 66.265625 74.371094 L 60.328125 63.496094 Z M 67.253906 65.472656 "/>
<path style=" stroke:none;fill-rule:nonzero;fill:rgb(100%,100%,100%);fill-opacity:1;" d="M 64.289062 63.496094 L 66.265625 74.371094 L 52.417969 74.371094 L 57.363281 65.472656 Z M 64.289062 63.496094 "/>
<path style=" stroke:none;fill-rule:nonzero;fill:rgb(15.294118%,15.294118%,15.294118%);fill-opacity:1;" d="M 57.363281 65.472656 L 67.253906 65.472656 L 62.304688 56.570312 Z M 57.363281 65.472656 "/>
</g>
</svg>
